<svg width="1440" height="1024" viewBox="0 0 1440 1024" fill="none" xmlns="http://www.w3.org/2000/svg">
<g clip-path="url(#clip0)">
<rect width="1440" height="1024" fill="white"/>
<path d="M1033.5 367.5C1134 397 1194.2 427.3 1273 298.5C1281.52 278.893 1299.2 248.357 1323.22 224.5C1342.9 204.96 1366.84 189.901 1393.5 189C1452.7 187 1492.83 188.167 1505.5 189V244.5C1523.5 231.5 1588.5 90.5 1588.5 90.5L1407 -71H496.5H-20.5L-150 397L-114.5 1066L879 1092.5C832.833 1078.33 723.5 1035.3 655.5 976.5C587.5 917.7 496.5 904.938 454 880C393.5 844.5 492 667.5 619.5 667.5C713.5 652 762.762 645 762.762 567C762.762 553.005 765.561 538.169 769.5 520C785 448.5 792 325 1033.5 367.5Z" fill="#16A085" stroke="#16A085"/>
<g clip-path="url(#clip1)">
<path opacity="0.24" d="M1402.81 665.819C1390.18 708.174 1376.54 752.221 1346.17 783.798C1325.84 804.918 1299.46 818.724 1272.81 830.304C1231.44 848.19 1187.86 861.48 1143.47 868C1141.93 867.929 1140.39 867.849 1138.82 867.733C1136.37 867.581 1133.93 867.385 1131.48 867.198C1127.23 866.887 1122.99 866.539 1118.78 866.12C1112.58 865.506 1106.42 864.811 1100.26 864.045C1096.16 863.502 1092.06 862.967 1087.97 862.344C1085.41 862.005 1082.82 861.613 1080.26 861.23C1076.09 860.58 1071.91 859.885 1067.74 859.191C1064.36 858.62 1060.98 857.997 1057.63 857.409C1057.52 857.409 1057.41 857.409 1057.34 857.409C1053.99 856.794 1050.64 856.18 1047.3 855.521C1043.96 854.861 1040.46 854.176 1037.04 853.445C1034.74 852.982 1032.46 852.554 1030.17 852.02C1028.1 851.601 1026.02 851.174 1023.96 850.72C1018.06 849.446 1012.16 848.101 1006.3 846.756C984.384 841.714 962.288 836.067 942.638 824.941C923.919 814.253 908.019 799.11 893.103 783.397C881.303 770.927 869.833 757.815 859.877 743.741C851.965 732.711 845.22 720.851 839.757 708.361C827.46 679.973 823.588 646.588 834.936 617.772C851.662 575.498 893.417 552.748 918.114 516.486C919.089 515.061 920.029 513.635 920.925 512.175C932.395 493.71 934.762 472.786 949.983 456.628C966.813 438.938 990.493 428.578 1014.14 425.354C1047.35 420.82 1080.92 428.391 1113.35 437.201C1145.77 446.01 1178.21 456.129 1211.74 456.904C1240.42 457.519 1268.9 451.168 1297.62 450.981C1326.34 450.794 1357.19 458.017 1376.01 480.215C1382.45 487.925 1387.35 496.848 1390.45 506.483C1391.46 509.449 1392.32 512.451 1393.11 515.524C1396.59 535.414 1400.95 584.111 1402.85 620.961C1403.97 643.248 1404.2 661.125 1402.81 665.819Z" fill="#8AFD68"/>
<path d="M1215.65 677.817C1095.87 700.665 939.453 729.213 859.895 743.679C827.878 692.283 821.604 656.546 833.787 621.157C835.362 616.463 837.581 611.582 841.828 609.194C844.839 607.538 848.373 607.413 851.793 607.27C873.74 606.504 895.914 605.774 917.366 610.575C928.949 613.158 940.332 617.389 952.176 617.621C965.708 617.888 978.823 612.962 992.32 611.885C1026.07 609.212 1056.54 630.154 1087.4 644.317C1106.2 652.894 1125.94 659.115 1146.2 662.844C1156.05 664.688 1166.01 665.935 1176 666.576C1183.9 667.075 1199.6 663.735 1206.46 666.888C1212.91 669.819 1215.61 673.586 1215.65 677.817Z" fill="#8AFD68"/>
<path d="M1403.04 665.694C1390.42 708.049 1376.77 752.096 1346.41 783.673C1326.07 804.793 1299.69 818.608 1273.05 830.143C1231.66 848.074 1188.07 861.382 1143.72 867.884C1142.18 867.804 1140.64 867.724 1139.06 867.608C1136.62 867.457 1134.17 867.27 1131.73 867.074C1127.49 866.762 1123.24 866.423 1119.03 865.996C1112.83 865.402 1106.66 864.71 1100.5 863.92C1096.4 863.377 1092.31 862.843 1088.21 862.228C1085.65 861.881 1083.06 861.498 1080.51 861.115C1076.33 860.455 1072.17 859.761 1067.99 859.075C1064.61 858.496 1061.23 857.881 1057.88 857.293C1057.77 857.293 1057.66 857.293 1057.58 857.293C1054.24 856.679 1050.89 856.064 1047.55 855.414C1044.2 854.764 1040.71 854.069 1037.29 853.338C1035 852.875 1032.7 852.448 1030.41 851.913C1028.34 851.486 1026.28 851.067 1024.21 850.604C1018.31 849.339 1012.41 847.985 1006.55 846.64C984.636 841.598 962.532 835.906 942.881 824.835C924.162 814.146 908.263 799.003 893.347 783.281C881.529 770.713 870.085 757.637 860.121 743.554C852.197 732.554 845.433 720.728 839.94 708.272C827.687 679.875 823.823 646.49 835.171 617.674C851.897 575.4 893.652 552.65 918.34 516.388C944.117 514.927 965.203 510.046 985.802 532.163C990.049 536.741 994.74 542.433 1000.87 541.854C1003.99 541.551 1006.7 539.627 1009.52 538.202C1013.09 536.425 1016.99 535.439 1020.95 535.307C1024.92 535.175 1028.88 535.9 1032.55 537.436C1044.99 542.7 1053.44 556.979 1066.79 558.511C1070.77 558.939 1074.76 558.164 1078.74 558.208C1090.21 558.208 1100.65 564.515 1110.57 570.438C1140.74 588.483 1171.88 604.762 1203.85 619.198C1209.12 621.54 1214.71 623.927 1220.43 623.233C1225.76 622.618 1230.46 619.429 1235.42 617.273C1241.73 614.639 1248.58 613.629 1255.36 614.332C1262.14 615.036 1268.65 617.431 1274.32 621.309C1274.86 621.66 1275.37 622.046 1275.86 622.467C1276.35 622.814 1276.84 623.197 1277.29 623.58C1277.36 623.268 1277.44 623.001 1277.52 622.689C1277.63 622.146 1277.78 621.611 1277.89 621.113C1281.69 605.373 1286.27 589.108 1297.66 578.027C1303.6 572.255 1311.19 568.14 1315.85 561.255C1319.08 556.445 1320.66 550.637 1323.52 545.56C1326.6 540.099 1331.14 535.592 1335.96 531.593C1351.74 518.456 1370.6 509.772 1390.68 506.403C1391.42 506.242 1392.36 509.627 1393.34 515.435C1396.82 535.325 1401.17 584.022 1403.08 620.881C1404.21 643.078 1404.43 661 1403.04 665.694Z" fill="url(#paint0_linear)"/>
<path opacity="0.24" d="M1402.81 665.819C1390.18 708.174 1376.54 752.221 1346.17 783.798C1325.84 804.918 1299.46 818.724 1272.81 830.304C1231.44 848.19 1187.86 861.48 1143.53 868C1141.99 867.929 1140.45 867.849 1138.87 867.733C1136.42 867.581 1133.98 867.385 1131.53 867.198C1127.29 866.887 1123.04 866.539 1118.84 866.121C1112.63 865.506 1106.47 864.811 1100.31 864.045C1096.21 863.502 1092.11 862.967 1088.02 862.344C1085.46 862.005 1082.87 861.613 1080.31 861.23C1076.14 860.58 1071.97 859.885 1067.8 859.191C1064.41 858.621 1061.04 857.997 1057.68 857.409C1057.57 857.409 1057.47 857.409 1057.39 857.409C1054.05 856.795 1050.7 856.18 1047.35 855.521C1044.01 854.862 1040.51 854.176 1037.09 853.445C1034.8 852.982 1032.51 852.555 1030.22 852.02C1028.23 851.601 1026.19 851.218 1024.21 850.755C1024.13 850.755 1024.09 850.755 1024.01 850.755C1018.11 849.481 1012.21 848.136 1006.35 846.791C984.436 841.75 962.34 836.103 942.69 824.977C923.971 814.288 908.072 799.146 893.155 783.433C881.355 770.962 869.885 757.851 859.929 743.777C998.047 718.694 1367.93 651.068 1375.41 644.53C1375.72 644.312 1375.99 644.027 1376.18 643.695C1376.37 643.362 1376.5 642.991 1376.53 642.606C1376.54 642.377 1376.49 642.151 1376.39 641.947C1376.3 641.742 1376.19 641.55 1376.05 641.377C1375.96 641.217 1375.83 641.083 1375.67 640.985C1374.51 639.872 1372.29 638.838 1369.09 637.796C1368.57 637.645 1368.01 637.449 1367.41 637.298C1355.94 633.948 1334.45 630.759 1307.05 626.947L1302.02 626.252C1294.18 625.174 1285.92 624.061 1277.32 622.867L1275.66 622.636C1273.56 622.333 1271.46 622.066 1269.36 621.745C1269.36 621.745 1271.04 621.629 1274.12 621.478C1274.32 621.478 1274.5 621.478 1274.72 621.478C1275.21 621.478 1275.74 621.398 1276.26 621.398C1276.79 621.398 1277.2 621.398 1277.69 621.318C1280.3 621.166 1283.44 621.015 1287.06 620.854L1291.82 620.632C1297.43 620.4 1303.82 620.124 1310.77 619.937C1312.38 619.857 1314.08 619.821 1315.77 619.785C1333.17 619.278 1353.42 619.011 1372.51 619.509C1375.26 619.509 1377.96 619.625 1380.63 619.741C1383.49 619.857 1386.27 619.973 1389.01 620.124L1392.97 620.356C1396.39 620.552 1399.69 620.819 1402.89 621.086C1403.97 643.248 1404.2 661.125 1402.81 665.819Z" fill="#8AFD68"/>
<path d="M1402.81 665.097C1390.18 707.452 1376.54 751.5 1346.17 783.076C1328.55 801.346 1306.41 814.154 1283.51 824.737C1276.37 826.776 1268.55 829.431 1260.02 832.753C1208.16 852.795 1143.81 859.992 1091.39 862.148C1090.26 861.987 1089.17 861.8 1088.05 861.64C1085.49 861.302 1082.9 860.91 1080.34 860.527C1076.17 859.876 1071.99 859.182 1067.82 858.487C1064.44 857.917 1061.06 857.293 1057.71 856.705C1057.6 856.705 1057.49 856.705 1057.41 856.705C1054.07 856.091 1050.72 855.476 1047.38 854.817C1044.04 854.158 1040.54 853.472 1037.12 852.741C1034.82 852.278 1032.53 851.851 1030.25 851.316C1028.25 850.898 1026.22 850.515 1024.23 850.051C1024.15 850.051 1024.12 850.051 1024.04 850.051C1018.14 848.778 1012.24 847.433 1006.37 846.088C984.462 841.046 962.366 835.399 942.716 824.273C923.997 813.584 908.098 798.442 893.182 782.729C881.712 770.615 870.555 757.922 860.861 744.302L860.782 744.222C860.521 743.839 860.217 743.456 859.912 743.073C939.453 728.492 1095.87 699.943 1215.65 677.096C1303.85 660.252 1372.22 646.481 1375.38 643.711C1375.69 643.492 1375.95 643.207 1376.15 642.875C1376.34 642.543 1376.46 642.171 1376.5 641.787C1376.51 641.557 1376.46 641.33 1376.35 641.128C1376.27 640.923 1376.15 640.731 1376.01 640.557C1375.92 640.4 1375.79 640.266 1375.64 640.166C1374.47 639.052 1372.25 638.01 1369.06 636.977C1368.54 636.825 1367.97 636.629 1367.37 636.478C1355.91 633.129 1334.41 629.94 1307.01 626.127L1301.98 625.433C1294.15 624.355 1285.89 623.241 1277.28 622.048L1275.63 621.816C1273.52 621.513 1271.43 621.246 1269.32 620.926C1269.32 620.926 1271.01 620.81 1274.09 620.658C1274.28 620.658 1274.46 620.614 1274.69 620.614C1275.18 620.614 1275.71 620.542 1276.23 620.542C1276.75 620.542 1277.17 620.542 1277.66 620.462C1280.27 620.311 1283.41 620.159 1287.02 619.999L1291.79 619.768C1297.39 619.545 1303.78 619.269 1310.74 619.082C1312.35 619.002 1314.04 618.966 1315.73 618.921C1333.14 618.423 1353.39 618.155 1372.48 618.654C1375.23 618.654 1377.93 618.77 1380.6 618.886C1383.45 619.002 1386.24 619.117 1388.98 619.269L1392.93 619.5C1396.35 619.696 1399.66 619.964 1402.85 620.231C1403.97 642.473 1404.2 660.403 1402.81 665.097Z" fill="url(#paint1_linear)"/>
<path d="M965.238 733.213C974.619 740.499 987.517 739.982 999.282 739.368C1043.03 737.073 1086.88 737.966 1130.5 742.04C1140.07 742.931 1149.83 743.973 1159.16 741.666C1167.06 739.715 1174.19 735.493 1181.38 731.636C1220.74 710.517 1264.41 699.569 1307.57 688.747C1301.91 682.708 1292.89 681.959 1284.72 681.621C1261.77 680.706 1238.79 680.148 1215.81 679.946C1202.13 679.822 1188.36 679.839 1174.91 682.271C1160.98 684.792 1147.58 689.86 1134.01 694.047C1104.05 703.293 1073.04 708.218 1042.02 711.915C1029.1 713.447 1016 714.08 1003.39 717.197C999.378 718.23 965.438 733.373 965.238 733.213Z" fill="url(#paint2_linear)"/>
<path d="M1163.85 663.824C1166.33 666.598 1168.08 669.968 1168.95 673.622C1170.86 681.683 1168.36 690.715 1171.98 698.135C1172.53 699.433 1173.44 700.539 1174.59 701.315C1176.14 702.206 1178.07 702.206 1179.82 702.072C1198.12 700.989 1216.3 698.265 1234.14 693.931C1239.14 692.719 1244.18 691.348 1248.6 688.684C1254.43 685.121 1258.79 679.617 1263.02 674.201C1264.73 672.172 1266.19 669.938 1267.37 667.547C1269.43 662.915 1269.28 657.597 1269.11 652.511C1268.95 648.271 1268.76 643.933 1267.24 639.979C1266.91 638.943 1266.31 638.02 1265.5 637.306C1264.55 636.667 1263.46 636.292 1262.32 636.22C1247.32 634.082 1232.34 639.204 1217.3 640.976C1209.33 641.782 1201.32 642.023 1193.32 641.698C1185.22 641.493 1173.64 640.433 1166.65 645.661C1164.33 647.398 1163.64 649.714 1162.54 652.342C1160.43 657.419 1160.05 659.584 1163.85 663.824Z" fill="#8AFD68"/>
<path d="M1163.85 663.824C1166.33 666.598 1168.08 669.968 1168.95 673.622C1170.86 681.683 1168.36 690.715 1171.98 698.135C1172.53 699.433 1173.44 700.539 1174.59 701.315C1176.14 702.206 1178.07 702.206 1179.82 702.072C1198.12 700.989 1216.3 698.265 1234.14 693.931C1239.14 692.719 1244.18 691.348 1248.6 688.684C1254.43 685.121 1258.79 679.617 1263.02 674.201C1264.73 672.172 1266.19 669.938 1267.37 667.547C1269.43 662.915 1269.28 657.597 1269.11 652.511C1268.95 648.271 1268.76 643.933 1267.24 639.979C1266.91 638.943 1266.31 638.02 1265.5 637.306C1264.55 636.667 1263.46 636.292 1262.32 636.22C1247.32 634.082 1232.34 639.204 1217.3 640.976C1209.33 641.782 1201.32 642.023 1193.32 641.698C1185.22 641.493 1173.64 640.433 1166.65 645.661C1164.33 647.398 1163.64 649.714 1162.54 652.342C1160.43 657.419 1160.05 659.584 1163.85 663.824Z" fill="url(#paint3_linear)"/>
<path d="M1023.59 685.531C1023.59 696.683 1033.89 711.185 1030.45 716.707C1028.59 719.691 1013.82 716.707 1011.46 716.707C1004.76 716.707 999.326 702.758 999.326 685.531C999.326 668.304 1004.76 654.355 1011.46 654.355C1013.97 654.355 1030.31 650.409 1032.24 653.767C1035.47 659.379 1023.59 674.771 1023.59 685.531Z" fill="#606161"/>
<path d="M1030.45 716.698C1037.15 716.698 1042.59 702.744 1042.59 685.531C1042.59 668.318 1037.15 654.364 1030.45 654.364C1023.75 654.364 1018.32 668.318 1018.32 685.531C1018.32 702.744 1023.75 716.698 1030.45 716.698Z" fill="#606161"/>
<path d="M1030.45 716.698C1037.15 716.698 1042.59 702.744 1042.59 685.531C1042.59 668.318 1037.15 654.364 1030.45 654.364C1023.75 654.364 1018.32 668.318 1018.32 685.531C1018.32 702.744 1023.75 716.698 1030.45 716.698Z" fill="url(#paint4_linear)"/>
<path d="M1162.62 688.417C1162.62 699.578 1172.92 714.08 1169.49 719.593C1167.63 722.577 1152.85 719.593 1150.49 719.593C1143.79 719.593 1138.36 705.635 1138.36 688.417C1138.36 671.199 1143.79 657.241 1150.49 657.241C1153 657.241 1169.34 653.295 1171.28 656.662C1174.53 662.265 1162.62 677.657 1162.62 688.417Z" fill="#606161"/>
<path d="M1169.52 719.584C1176.22 719.584 1181.65 705.63 1181.65 688.417C1181.65 671.204 1176.22 657.25 1169.52 657.25C1162.82 657.25 1157.39 671.204 1157.39 688.417C1157.39 705.63 1162.82 719.584 1169.52 719.584Z" fill="#606161"/>
<path d="M1169.52 719.584C1176.22 719.584 1181.65 705.63 1181.65 688.417C1181.65 671.204 1176.22 657.25 1169.52 657.25C1162.82 657.25 1157.39 671.204 1157.39 688.417C1157.39 705.63 1162.82 719.584 1169.52 719.584Z" fill="url(#paint5_linear)"/>
<path d="M1170.56 711.185C1175.51 711.185 1179.51 700.892 1179.51 688.195C1179.51 675.497 1175.51 665.204 1170.56 665.204C1165.62 665.204 1161.62 675.497 1161.62 688.195C1161.62 700.892 1165.62 711.185 1170.56 711.185Z" fill="url(#paint6_linear)"/>
<path d="M1252.75 673.105C1252.75 681.906 1260.87 693.343 1258.16 697.681C1256.7 700.032 1245.04 697.681 1243.19 697.681C1237.9 697.681 1233.61 686.68 1233.61 673.105C1233.61 659.53 1237.9 648.539 1243.19 648.539C1245.16 648.539 1258.05 645.43 1259.57 648.075C1262.11 652.494 1252.75 664.625 1252.75 673.105Z" fill="#606161"/>
<path d="M1258.16 697.681C1263.45 697.681 1267.73 686.678 1267.73 673.105C1267.73 659.533 1263.45 648.53 1258.16 648.53C1252.88 648.53 1248.6 659.533 1248.6 673.105C1248.6 686.678 1252.88 697.681 1258.16 697.681Z" fill="#606161"/>
<path d="M1258.16 697.681C1263.45 697.681 1267.73 686.678 1267.73 673.105C1267.73 659.533 1263.45 648.53 1258.16 648.53C1252.88 648.53 1248.6 659.533 1248.6 673.105C1248.6 686.678 1252.88 697.681 1258.16 697.681Z" fill="url(#paint7_linear)"/>
<path d="M1258.8 690.341C1262.67 690.341 1265.8 682.286 1265.8 672.348C1265.8 662.411 1262.67 654.355 1258.8 654.355C1254.93 654.355 1251.79 662.411 1251.79 672.348C1251.79 682.286 1254.93 690.341 1258.8 690.341Z" fill="url(#paint8_linear)"/>
<path d="M1272.66 637.351L1270.15 669.079L1267.74 679.314C1267.67 672.188 1267.62 665.115 1266.99 658.079C1266.68 654.266 1266.12 650.231 1263.51 647.461C1262.08 645.84 1259.75 644.842 1257.79 645.572C1256.88 645.982 1256.07 646.59 1255.42 647.354C1251.25 651.852 1250.2 658.435 1249.45 664.625C1248.51 671.823 1247.57 679.011 1246.63 686.244C1246.32 688.384 1246.24 690.553 1246.41 692.711C1245.77 692.943 1245.11 693.122 1244.45 693.245C1239.45 693.975 1217.31 694.67 1208.41 698.322C1203.49 700.362 1192.55 702.669 1183.68 704.362C1183.37 702.821 1183.11 701.288 1182.93 699.747C1181.19 686.475 1185.3 672.437 1181.01 659.815C1179.92 656.511 1177.78 653.081 1174.44 652.583C1171.1 652.084 1168.08 654.818 1166.01 657.624C1158.05 668.126 1154.97 681.674 1153.53 694.857C1153.05 699.204 1151.62 703.48 1151.25 707.782C1151.15 708.652 1151.15 709.531 1151.25 710.401C1145.34 711.211 1139.26 711.675 1134.86 711.131C1123.06 709.67 1011.03 707.827 1004.26 704.557C1000.33 702.641 996.543 700.442 992.921 697.975C992.921 697.975 990.397 692.479 993.974 688.818C993.434 676.372 995.645 663.962 1000.44 652.511C1001.15 650.73 1001.98 648.948 1002.88 647.167C1003.89 645.189 1005.03 643.274 1006.26 641.431C1017.16 625.397 1032.98 620.774 1043.92 607.003C1056.06 591.656 1081.39 575.961 1096.01 573.387C1110.63 570.812 1218.04 568.612 1236.22 573.387C1254.41 578.161 1255.51 584.69 1255.51 584.69L1265.84 609.195C1265.84 609.195 1270.88 617.585 1270.88 620.507C1270.88 623.429 1270.5 627.081 1270.5 627.081L1272.66 637.351Z" fill="#8AFD68"/>
<path d="M1145.77 641.573L1156.21 631.338C1159.56 628.034 1163.03 624.667 1167.32 622.814C1172.29 620.676 1177.87 620.783 1183.25 620.801C1211.19 620.867 1239.03 617.351 1266.12 610.335L1268.01 645.742C1268.1 647.523 1268.12 649.509 1266.93 650.792C1266.18 651.48 1265.29 651.972 1264.32 652.226C1259.48 653.865 1254.41 655.112 1250.12 657.927C1245.58 660.911 1242.21 665.445 1237.88 668.741C1226.99 676.989 1212.15 676.125 1198.66 674.896C1195.79 674.637 1192.83 674.352 1190.34 672.909C1188.65 671.938 1187.26 670.495 1185.59 669.516C1179.49 665.997 1171.81 669.516 1166.5 674.13C1160.49 679.368 1155.75 685.967 1152.65 693.405C1151.33 696.576 1149.72 700.415 1146.38 700.87C1145.18 700.98 1143.98 700.759 1142.9 700.228C1134.2 696.487 1129.58 681.345 1128.63 672.375C1127.26 659.913 1137.83 649.394 1145.77 641.573Z" fill="url(#paint9_linear)"/>
<path d="M1057.58 595.245C1064.79 589.01 1080.98 580.334 1090.31 578.927C1095.18 578.188 1086.79 581.002 1139.17 581.448C1185.2 581.849 1183.84 578.776 1182.9 580.726C1179.31 588.271 1170.63 604.723 1167.03 612.268C1166.16 614.165 1165.16 616.142 1163.48 617.363C1161.48 618.815 1158.86 618.913 1156.41 618.957C1147.9 619.091 1139.39 619.091 1130.89 619.082H1084.77C1078.42 619.082 1072.08 619.082 1065.74 618.895C1060.18 618.734 1053.15 619.376 1047.84 617.523C1035.35 613.14 1052.78 599.387 1057.58 595.245Z" fill="url(#paint10_linear)"/>
<path d="M1209.92 618.022C1210.03 618.561 1209.96 619.124 1209.72 619.616C1209.34 620.044 1208.83 620.317 1208.27 620.382C1198.7 622.761 1188.76 625.13 1179.2 622.841C1176.85 622.28 1174.22 621.059 1173.67 618.663C1173.5 617.287 1173.7 615.888 1174.25 614.619C1176.58 607.654 1178.94 600.626 1182.63 594.301C1185.04 589.979 1188.25 586.179 1192.08 583.114C1196.25 579.951 1198.66 581.501 1200.89 585.919C1205.86 595.735 1208.74 607.083 1209.92 618.022Z" fill="url(#paint11_linear)"/>
<path d="M1207.63 591.442L1209.64 597.74C1210.44 600.251 1211.25 602.763 1211.87 605.329C1212.88 609.495 1213.42 613.765 1213.49 618.057C1213.49 618.832 1213.62 619.777 1214.3 620.079C1214.66 620.187 1215.05 620.187 1215.41 620.079L1228.46 617.942L1234.25 617.051C1235.58 616.828 1237.12 616.463 1237.73 615.216C1237.96 614.652 1238.04 614.039 1237.97 613.434C1237.78 611.599 1237.39 609.791 1236.8 608.045L1235.28 602.897C1233.27 596.101 1231.21 589.215 1227.52 583.203C1227.12 582.405 1226.52 581.729 1225.78 581.243C1225.01 580.904 1224.17 580.757 1223.34 580.815C1218.17 580.753 1212.77 580.575 1207.67 581.19C1205.8 581.412 1204.46 581.973 1205.06 584.031C1205.64 586.498 1206.84 588.957 1207.63 591.442Z" fill="url(#paint12_linear)"/>
<path d="M1238.41 596.84C1240.36 602.826 1241.32 609.096 1242.4 615.305C1242.41 615.423 1242.44 615.539 1242.49 615.646C1242.54 615.753 1242.6 615.849 1242.69 615.928C1242.89 616.039 1243.13 616.064 1243.34 616C1245.88 615.572 1255.04 612.508 1257.32 612.526C1257.72 612.568 1258.12 612.504 1258.49 612.339C1258.75 612.166 1258.96 611.921 1259.09 611.634C1259.22 611.346 1259.28 611.026 1259.24 610.709C1259.16 610.079 1259 609.464 1258.75 608.883C1257.55 605.507 1254.86 591.068 1242.56 584.387C1240.87 583.653 1239.12 583.057 1237.34 582.606C1236.33 582.249 1233.62 580.824 1232.6 581.786C1231.59 582.748 1233.47 585.109 1233.96 586.133C1235.68 589.593 1237.17 593.17 1238.41 596.84V596.84Z" fill="url(#paint13_linear)"/>
<path d="M1026.27 658.043C1019.36 653.589 1010.71 653.589 1002.55 653.358C1001.9 653.412 1001.25 653.232 1000.72 652.85C1000.62 652.75 1000.53 652.636 1000.46 652.511C1001.17 650.73 1002 648.948 1002.89 647.167C1003.91 645.189 1005.04 643.274 1006.28 641.431C1008.12 640.664 1009.81 641.199 1012.1 642.624C1018.08 646.312 1022.29 652.235 1026.27 658.043Z" fill="url(#paint14_linear)"/>
<path d="M1083.71 658.711C1090.29 655.706 1096.96 652.975 1103.73 650.516C1106.33 649.526 1108.99 648.694 1111.68 648.022C1114.61 647.382 1117.56 646.907 1120.53 646.597L1137.41 644.495C1137.94 644.432 1138.6 644.432 1138.86 644.904C1138.98 645.166 1139.01 645.463 1138.93 645.742C1138.6 647.461 1137.33 648.797 1136.11 650.026L1130.66 655.558C1128.37 657.883 1125.97 660.279 1122.94 661.437C1120.72 662.167 1118.39 662.502 1116.05 662.425C1109.14 662.514 1102.27 661.748 1095.38 661.321C1091.9 661.116 1088.42 660.982 1084.94 661.089C1084.24 661.089 1080.82 661.766 1080.52 660.956C1080.22 660.145 1083.1 658.987 1083.71 658.711Z" fill="url(#paint15_linear)"/>
<path d="M1010.15 691.205C1008.5 693.049 1006.54 694.51 1004.21 694.358C1003.01 694.167 1001.86 693.779 1000.79 693.209C997.672 691.668 993.991 691.089 993.347 687.402C992.747 683.901 994.104 679.706 995.958 676.82C1000.49 680.23 1004.57 684.214 1008.12 688.675C1008.79 689.477 1009.46 690.359 1010.15 691.205Z" fill="url(#paint16_linear)"/>
<path d="M1102.34 693.895C1100.13 694.775 1097.87 695.522 1095.58 696.131C1086.66 698.438 1077.39 698.171 1068.21 697.913C1053.33 697.449 1038.46 697.013 1023.61 696.603C1020.3 696.487 1016.8 696.372 1013.95 694.644C1012.5 693.712 1011.22 692.541 1010.15 691.179C1010.75 690.484 1011.32 689.753 1011.84 689.023C1011.99 688.836 1012.1 688.64 1012.26 688.444C1014.58 685.219 1017.03 681.835 1020.48 679.866C1023.46 678.174 1026.88 677.675 1030.25 677.256C1043.05 675.708 1055.94 675.142 1068.82 675.564C1072.72 675.611 1076.61 676.049 1080.43 676.873C1087.1 678.553 1093.07 682.332 1097.52 687.678C1098.17 688.444 1098.77 689.255 1099.37 690.065C1100.34 691.401 1101.28 692.711 1102.34 693.895Z" fill="url(#paint17_linear)"/>
<path d="M1102.34 689.014C1101.36 689.397 1100.34 689.78 1099.37 690.092C1098.77 689.281 1098.17 688.471 1097.52 687.705C1093.07 682.359 1087.1 678.58 1080.43 676.9C1076.61 676.076 1072.72 675.637 1068.82 675.59C1055.94 675.169 1043.05 675.735 1030.25 677.283C1026.88 677.702 1023.46 678.174 1020.48 679.893C1017 681.861 1014.58 685.237 1012.26 688.471C1011.49 687.826 1010.78 687.107 1010.15 686.324C1010.75 685.629 1011.32 684.899 1011.84 684.168C1014.32 680.739 1016.84 677.087 1020.48 675.012C1023.46 673.319 1026.88 672.82 1030.25 672.393C1043.05 670.853 1055.94 670.288 1068.82 670.7C1072.72 670.752 1076.61 671.19 1080.43 672.01C1087.09 673.696 1093.07 677.478 1097.52 682.823C1099.18 684.819 1100.65 687.09 1102.34 689.014Z" fill="url(#paint18_linear)"/>
<path d="M1137.38 682.28C1136.48 686.515 1134.88 690.561 1132.65 694.243C1131.9 695.604 1130.84 696.752 1129.55 697.583C1128.4 698.127 1127.16 698.43 1125.9 698.474C1122.06 698.864 1118.19 699.045 1114.33 699.017C1112.1 699.102 1109.87 698.777 1107.75 698.055C1105.63 697.143 1103.76 695.715 1102.3 693.895C1113.99 689.397 1125 682.209 1137.38 682.28Z" fill="url(#paint19_linear)"/>
<path d="M1230.72 630.777C1239.75 628.265 1249.1 625.584 1258.33 627.081C1260.21 627.383 1262.21 627.971 1263.36 629.503C1264.85 631.499 1264.39 634.331 1263.66 636.727C1263.14 638.384 1262.42 640.148 1260.93 640.985C1259.81 641.499 1258.58 641.708 1257.35 641.591C1239.17 641.413 1220.17 638.687 1203.45 645.991C1197.9 648.414 1192.65 651.941 1186.66 652.725C1184.42 653.019 1185.73 644.299 1186.92 643.087C1189.53 640.415 1195.24 640.139 1198.59 639.284C1209.32 636.549 1220.06 633.761 1230.72 630.777Z" fill="url(#paint20_linear)"/>
<path d="M1174.12 626.421C1174.73 626.428 1175.33 626.6 1175.86 626.92C1176.66 627.517 1176.83 628.648 1176.93 629.664C1177.23 632.523 1177.38 635.81 1175.39 637.841C1174.14 639.115 1172.33 639.569 1170.61 639.979L1166.47 640.949C1164.35 641.448 1162.12 641.947 1160 641.466C1155.94 640.575 1149.23 633.325 1153.66 629.477C1158.42 625.344 1168.37 625.842 1174.12 626.421Z" fill="#8AFD68"/>
<path d="M1120.39 643.435C1113.37 645.1 1106.1 645.136 1098.88 645.074C1078.27 644.896 1057.65 643.996 1037.04 643.105C1031.67 642.874 1026.29 642.633 1020.95 642.001C1018.18 641.671 1014.76 640.602 1014.39 637.761C1014.19 636.22 1015.05 634.75 1015.93 633.476C1022.18 624.465 1031.05 617.704 1041.28 614.156C1041.91 613.869 1042.62 613.782 1043.3 613.907C1044.17 614.156 1044.67 614.984 1045.24 615.688C1048.2 619.251 1053.33 619.67 1057.9 619.741C1078.27 620.053 1098.63 618.636 1118.98 617.763C1129.3 617.318 1139.63 617.015 1149.96 617.14C1153.44 617.14 1157.74 616.543 1155.91 621.309C1154.68 624.524 1149.7 627.339 1147.12 629.325C1139.12 635.596 1130.3 641.083 1120.39 643.435Z" fill="url(#paint21_linear)"/>
<path d="M1207.82 685.487C1203.47 686.377 1199.01 687.108 1194.84 688.693C1194.17 688.872 1193.58 689.281 1193.16 689.851C1192.55 690.938 1193.43 692.408 1194.6 692.817C1195.81 693.1 1197.08 693.01 1198.24 692.559C1206.88 690.124 1215.42 687.342 1223.86 684.213C1230.09 681.897 1238.07 679.162 1242.38 673.729C1239.51 672.366 1229.67 678.797 1226.35 680.053C1220.32 682.343 1214.12 684.159 1207.82 685.487V685.487Z" fill="url(#paint22_linear)"/>
<path d="M1113.89 553.835C1113.89 553.835 1136.37 557.897 1156.21 554.645C1176.04 551.394 1232.4 555.189 1237.14 554.913C1237.73 554.824 1238.33 554.874 1238.89 555.056C1239.46 555.239 1239.98 555.551 1240.41 555.968C1240.85 556.385 1241.18 556.897 1241.39 557.466C1241.6 558.034 1241.69 558.644 1241.64 559.251C1241.64 559.251 1162.04 562.903 1151.04 563.651C1140.05 564.399 1111.75 561.682 1111.48 558.974C1111.21 556.267 1113.89 553.835 1113.89 553.835Z" fill="#8AFD68"/>
<path d="M1113.89 553.835C1113.89 553.835 1136.37 557.897 1156.21 554.645C1176.04 551.394 1232.4 555.189 1237.14 554.913C1237.73 554.824 1238.33 554.874 1238.89 555.056C1239.46 555.239 1239.98 555.551 1240.41 555.968C1240.85 556.385 1241.18 556.897 1241.39 557.466C1241.6 558.034 1241.69 558.644 1241.64 559.251C1241.64 559.251 1162.04 562.903 1151.04 563.651C1140.05 564.399 1111.75 561.682 1111.48 558.974C1111.21 556.267 1113.89 553.835 1113.89 553.835Z" fill="url(#paint23_linear)"/>
<path d="M1156.12 562.341C1154.73 563.455 1152.81 563.571 1151.04 563.651L1132.6 564.452H1132.55L1115.72 565.147C1114.33 565.227 1112.9 565.263 1111.51 565.343C1110.64 565.343 1109.77 565.414 1108.9 565.53C1104.83 565.842 1101.27 566.421 1097.05 565.343C1095.8 565.05 1094.64 564.438 1093.68 563.562C1091.49 561.673 1091.8 558.796 1094.28 556.641C1097.47 553.826 1101.01 550.869 1105.25 550.601C1109.16 550.325 1112.81 552.445 1116.37 554.164C1127.09 559.439 1138.94 561.825 1150.8 561.094C1152.66 560.996 1154.84 560.916 1156.12 562.341Z" fill="#8AFD68"/>
<path d="M1152.74 560.872L1240.94 556.365C1240.94 556.365 1242.88 557.807 1241.65 559.25C1240.41 560.694 1144.81 563.971 1144.81 563.971L1152.74 560.872Z" fill="#8AFD68"/>
<path d="M1152.74 560.872L1240.94 556.365C1240.94 556.365 1242.88 557.807 1241.65 559.25C1240.41 560.694 1144.81 563.971 1144.81 563.971L1152.74 560.872Z" fill="url(#paint24_linear)"/>
<path d="M1132.55 564.452L1115.72 565.147C1115.27 565.147 1114.78 565.147 1114.33 565.147C1113.62 565.103 1112.91 565.459 1112.27 565.147C1109.88 563.703 1107.6 562.058 1105.48 560.23C1104.46 559.268 1103.21 556.293 1103.39 554.886C1108.66 554.841 1113.62 556.765 1118.35 558.85C1120.75 559.919 1123.16 561.041 1125.56 562.003C1127.59 562.805 1131.01 563.188 1132.55 564.452Z" fill="url(#paint25_linear)"/>
<path d="M1108.88 565.53C1104.82 565.842 1101.25 566.421 1097.04 565.343C1095.78 565.05 1094.62 564.438 1093.66 563.562C1093.59 562.885 1093.73 562.204 1094.03 561.602C1094.47 560.788 1095.03 560.049 1095.69 559.411C1097.04 557.87 1098.62 556.213 1100.65 555.91C1100.8 555.91 1100.99 555.866 1101.1 555.91C1101.25 555.964 1101.38 556.056 1101.48 556.177C1101.38 560.408 1108.46 564.862 1108.88 565.53Z" fill="url(#paint26_linear)"/>
<path d="M1199.57 572.514C1199.57 572.514 1195.86 562.769 1191.1 562.226C1186.34 561.682 1142.43 561.682 1141.11 563.036C1139.78 564.39 1135.28 571.944 1135.28 571.944L1199.57 572.514Z" fill="#8AFD68"/>
<path d="M1199.57 572.514C1199.57 572.514 1195.86 562.769 1191.1 562.226C1186.34 561.682 1142.43 561.682 1141.11 563.036C1139.78 564.39 1135.28 571.944 1135.28 571.944L1199.57 572.514Z" fill="url(#paint27_linear)"/>
<path d="M1194.9 556.365L1166.63 554.913C1165.48 554.914 1164.34 554.683 1163.27 554.232C1162.21 553.782 1161.24 553.122 1160.43 552.289C1159.61 551.456 1158.97 550.466 1158.53 549.377C1158.09 548.289 1157.86 547.121 1157.86 545.943V530.675C1157.86 527.932 1146.08 525.518 1147.98 523.87C1149.51 522.543 1164.47 521.706 1166.63 521.706H1208.34C1209.49 521.705 1210.63 521.936 1211.7 522.386C1212.76 522.836 1213.73 523.497 1214.54 524.33C1215.36 525.163 1216.01 526.152 1216.45 527.241C1216.89 528.33 1217.11 529.497 1217.11 530.675V545.943C1217.11 547.724 1216.48 551.287 1213.42 552.926C1207.87 555.866 1198.01 556.365 1194.9 556.365Z" fill="#8AFD68"/>
<path d="M1194.9 556.365L1166.63 554.913C1165.48 554.914 1164.34 554.683 1163.27 554.232C1162.21 553.782 1161.24 553.122 1160.43 552.289C1159.61 551.456 1158.97 550.466 1158.53 549.377C1158.09 548.289 1157.86 547.121 1157.86 545.943V530.675C1157.86 527.932 1146.08 525.518 1147.98 523.87C1149.51 522.543 1164.47 521.706 1166.63 521.706H1208.34C1209.49 521.705 1210.63 521.936 1211.7 522.386C1212.76 522.836 1213.73 523.497 1214.54 524.33C1215.36 525.163 1216.01 526.152 1216.45 527.241C1216.89 528.33 1217.11 529.497 1217.11 530.675V545.943C1217.11 547.724 1216.48 551.287 1213.42 552.926C1207.87 555.866 1198.01 556.365 1194.9 556.365Z" fill="url(#paint28_linear)"/>
<path d="M1192.38 523.505H1150.67C1145.83 523.505 1141.9 527.525 1141.9 532.484V547.742C1141.9 552.701 1145.83 556.721 1150.67 556.721H1192.38C1197.23 556.721 1201.15 552.701 1201.15 547.742V532.484C1201.15 527.525 1197.23 523.505 1192.38 523.505Z" fill="#8AFD68"/>
<path d="M1192.38 523.505H1150.67C1145.83 523.505 1141.9 527.525 1141.9 532.484V547.742C1141.9 552.701 1145.83 556.721 1150.67 556.721H1192.38C1197.23 556.721 1201.15 552.701 1201.15 547.742V532.484C1201.15 527.525 1197.23 523.505 1192.38 523.505Z" fill="url(#paint29_linear)"/>
<path d="M1165.09 522.427H1160.33V556.703H1165.09V522.427Z" fill="url(#paint30_linear)"/>
<path d="M1187.84 521.759H1183.08V556.703H1187.84V521.759Z" fill="url(#paint31_linear)"/>
</g>
</g>
<defs>
<linearGradient id="paint0_linear" x1="1115.19" y1="508.995" x2="1119.56" y2="1096.68" gradientUnits="userSpaceOnUse">
<stop stop-color="#010101" stop-opacity="0"/>
<stop offset="0.95" stop-color="#010101"/>
</linearGradient>
<linearGradient id="paint1_linear" x1="249340" y1="113711" x2="194836" y2="-92600.1" gradientUnits="userSpaceOnUse">
<stop stop-color="#010101" stop-opacity="0"/>
<stop offset="0.95" stop-color="#010101"/>
</linearGradient>
<linearGradient id="paint2_linear" x1="127501" y1="25799.4" x2="127045" y2="-8877.03" gradientUnits="userSpaceOnUse">
<stop stop-color="#010101" stop-opacity="0"/>
<stop offset="0.95" stop-color="#010101"/>
</linearGradient>
<linearGradient id="paint3_linear" x1="50542.7" y1="16304.5" x2="50460.3" y2="21314.9" gradientUnits="userSpaceOnUse">
<stop stop-color="#010101" stop-opacity="0"/>
<stop offset="0.95" stop-color="#010101"/>
</linearGradient>
<linearGradient id="paint4_linear" x1="6324.54" y1="18956.3" x2="7000.98" y2="18956.3" gradientUnits="userSpaceOnUse">
<stop stop-color="#010101" stop-opacity="0"/>
<stop offset="0.95" stop-color="#010101"/>
</linearGradient>
<linearGradient id="paint5_linear" x1="10138.2" y1="19071.4" x2="11361.9" y2="19102.1" gradientUnits="userSpaceOnUse">
<stop stop-color="#010101" stop-opacity="0"/>
<stop offset="0.95" stop-color="#010101"/>
</linearGradient>
<linearGradient id="paint6_linear" x1="1176.46" y1="641.065" x2="1153.94" y2="813.141" gradientUnits="userSpaceOnUse">
<stop stop-color="white" stop-opacity="0"/>
<stop offset="0.95" stop-color="white"/>
</linearGradient>
<linearGradient id="paint7_linear" x1="10367.5" y1="14338.6" x2="11128.2" y2="14357.7" gradientUnits="userSpaceOnUse">
<stop stop-color="#010101" stop-opacity="0"/>
<stop offset="0.95" stop-color="#010101"/>
</linearGradient>
<linearGradient id="paint8_linear" x1="8261.91" y1="9197.09" x2="6620.46" y2="14192.6" gradientUnits="userSpaceOnUse">
<stop stop-color="white" stop-opacity="0"/>
<stop offset="0.95" stop-color="white"/>
</linearGradient>
<linearGradient id="paint9_linear" x1="62751.7" y1="31499.5" x2="61281.5" y2="1777.96" gradientUnits="userSpaceOnUse">
<stop stop-color="#8AFD68"/>
<stop offset="0.95" stop-color="white"/>
</linearGradient>
<linearGradient id="paint10_linear" x1="49017.4" y1="6852.98" x2="48908.1" y2="10464.4" gradientUnits="userSpaceOnUse">
<stop stop-color="#010101"/>
<stop offset="0.95" stop-color="#010101"/>
</linearGradient>
<linearGradient id="paint11_linear" x1="16819.6" y1="7119.97" x2="16719.6" y2="10516.3" gradientUnits="userSpaceOnUse">
<stop stop-color="#010101"/>
<stop offset="0.95" stop-color="#010101"/>
</linearGradient>
<linearGradient id="paint12_linear" x1="16544.2" y1="6703.37" x2="16448.9" y2="9865.72" gradientUnits="userSpaceOnUse">
<stop stop-color="#010101"/>
<stop offset="0.95" stop-color="#010101"/>
</linearGradient>
<linearGradient id="paint13_linear" x1="14481.8" y1="5976.4" x2="14392.2" y2="8750.35" gradientUnits="userSpaceOnUse">
<stop stop-color="#010101"/>
<stop offset="0.95" stop-color="#010101"/>
</linearGradient>
<linearGradient id="paint14_linear" x1="6737.08" y1="4003.13" x2="6750.68" y2="5172.2" gradientUnits="userSpaceOnUse">
<stop stop-color="white"/>
<stop offset="0.95" stop-color="white"/>
</linearGradient>
<linearGradient id="paint15_linear" x1="20554.9" y1="4171.29" x2="20561.6" y2="5409.79" gradientUnits="userSpaceOnUse">
<stop stop-color="white"/>
<stop offset="0.95" stop-color="white"/>
</linearGradient>
<linearGradient id="paint16_linear" x1="4556.94" y1="4497" x2="4546.04" y2="8935.63" gradientUnits="userSpaceOnUse">
<stop stop-color="#E5E5E5"/>
<stop offset="0.95" stop-color="#010101"/>
</linearGradient>
<linearGradient id="paint17_linear" x1="26051.4" y1="6306.64" x2="26071.7" y2="10852.3" gradientUnits="userSpaceOnUse">
<stop stop-color="#E5E5E5"/>
<stop offset="0.95" stop-color="#010101"/>
</linearGradient>
<linearGradient id="paint18_linear" x1="26159.3" y1="5893.12" x2="26158" y2="11121.3" gradientUnits="userSpaceOnUse">
<stop stop-color="#010101" stop-opacity="0"/>
<stop offset="0.95" stop-color="#010101"/>
</linearGradient>
<linearGradient id="paint19_linear" x1="13242.3" y1="4334.14" x2="13237.4" y2="8570.79" gradientUnits="userSpaceOnUse">
<stop stop-color="#E5E5E5"/>
<stop offset="0.95" stop-color="#010101"/>
</linearGradient>
<linearGradient id="paint20_linear" x1="37772.8" y1="5999.25" x2="37912.2" y2="12951.7" gradientUnits="userSpaceOnUse">
<stop stop-color="#8AFD68"/>
<stop offset="0.95" stop-color="white"/>
</linearGradient>
<linearGradient id="paint21_linear" x1="47921.8" y1="6609.48" x2="46815.3" y2="16262.2" gradientUnits="userSpaceOnUse">
<stop stop-color="white" stop-opacity="0"/>
<stop offset="0.95" stop-color="white"/>
</linearGradient>
<linearGradient id="paint22_linear" x1="23852.2" y1="6012.17" x2="23842.8" y2="7980" gradientUnits="userSpaceOnUse">
<stop stop-color="white" stop-opacity="0"/>
<stop offset="0.95" stop-color="white"/>
</linearGradient>
<linearGradient id="paint23_linear" x1="54998.9" y1="2341.71" x2="54982.1" y2="1557.13" gradientUnits="userSpaceOnUse">
<stop stop-color="#010101" stop-opacity="0"/>
<stop offset="0.95" stop-color="#010101"/>
</linearGradient>
<linearGradient id="paint24_linear" x1="40109.2" y1="1702.04" x2="40554.5" y2="3878.26" gradientUnits="userSpaceOnUse">
<stop stop-color="#010101" stop-opacity="0"/>
<stop offset="0.95" stop-color="#010101"/>
</linearGradient>
<linearGradient id="paint25_linear" x1="11113.2" y1="2329.41" x2="11127.1" y2="1755.89" gradientUnits="userSpaceOnUse">
<stop stop-color="#010101" stop-opacity="0"/>
<stop offset="0.95" stop-color="#010101"/>
</linearGradient>
<linearGradient id="paint26_linear" x1="6119.82" y1="2299.34" x2="5813.55" y2="1740.91" gradientUnits="userSpaceOnUse">
<stop stop-color="#010101" stop-opacity="0"/>
<stop offset="0.95" stop-color="#010101"/>
</linearGradient>
<linearGradient id="paint27_linear" x1="26952.3" y1="2147.45" x2="26948" y2="2775.31" gradientUnits="userSpaceOnUse">
<stop stop-color="#010101" stop-opacity="0"/>
<stop offset="0.95" stop-color="#010101"/>
</linearGradient>
<linearGradient id="paint28_linear" x1="32053.7" y1="4523.07" x2="26191.4" y2="13097.8" gradientUnits="userSpaceOnUse">
<stop stop-color="#010101" stop-opacity="0"/>
<stop offset="0.95" stop-color="#010101"/>
</linearGradient>
<linearGradient id="paint29_linear" x1="25296.1" y1="4069.63" x2="23755.5" y2="9103.05" gradientUnits="userSpaceOnUse">
<stop stop-color="#010101" stop-opacity="0"/>
<stop offset="0.95" stop-color="#010101"/>
</linearGradient>
<linearGradient id="paint30_linear" x1="2850.52" y1="4985.48" x2="4564.7" y2="4981.66" gradientUnits="userSpaceOnUse">
<stop stop-color="#010101" stop-opacity="0"/>
<stop offset="0.95" stop-color="#010101"/>
</linearGradient>
<linearGradient id="paint31_linear" x1="2997.45" y1="5058.87" x2="4715" y2="5055.11" gradientUnits="userSpaceOnUse">
<stop stop-color="#010101" stop-opacity="0"/>
<stop offset="0.95" stop-color="#010101"/>
</linearGradient>
<clipPath id="clip0">
<rect width="1440" height="1024" fill="white"/>
</clipPath>
<clipPath id="clip1">
<rect width="576" height="444" fill="white" transform="translate(828 424)"/>
</clipPath>
</defs>
</svg>
